<?xml version="1.0" standalone="no"?>
<!DOCTYPE svg PUBLIC "-//W3C//DTD SVG 20010904//EN"
 "http://www.w3.org/TR/2001/REC-SVG-20010904/DTD/svg10.dtd">
<svg version="1.0" xmlns="http://www.w3.org/2000/svg"
 width="700.000000pt" height="467.000000pt" viewBox="0 0 700.000000 467.000000"
 preserveAspectRatio="xMidYMid meet">
<metadata>
Created by potrace 1.15, written by Peter Selinger 2001-2017
</metadata>
<g transform="translate(0.000000,467.000000) scale(0.100000,-0.100000)"
fill="#000000" stroke="none">
<path d="M5730 4384 c-49 -16 -107 -46 -199 -101 -57 -34 -119 -66 -138 -69
-19 -4 -66 -2 -103 5 -175 29 -239 -1 -294 -138 -45 -111 -72 -127 -245 -141
-134 -11 -187 -20 -291 -50 -67 -20 -114 -23 -460 -32 -428 -12 -554 -5 -720
38 -120 31 -413 47 -885 49 -221 1 -342 6 -365 13 -41 14 -189 16 -222 3 -13
-5 -48 -16 -78 -26 -91 -29 -154 -71 -232 -154 -80 -85 -148 -202 -173 -297
-22 -86 -36 -563 -33 -1149 l3 -510 -32 -101 c-47 -146 -53 -204 -53 -554 -1
-173 -5 -349 -11 -390 -24 -187 -25 -200 -12 -252 35 -138 169 -199 267 -124
53 40 60 78 62 331 1 193 4 227 21 275 36 98 157 352 177 373 23 24 93 144
126 217 43 97 57 115 106 141 41 22 41 22 74 3 65 -37 71 -66 75 -321 1 -142
7 -243 15 -268 27 -88 276 -601 329 -679 55 -79 134 -126 215 -126 64 0 112
28 132 76 14 32 13 41 -2 87 -10 29 -28 72 -42 97 -85 155 -110 223 -123 340
-17 143 7 453 44 558 55 158 151 180 377 87 63 -26 144 -59 180 -72 87 -34
209 -41 310 -18 167 36 432 65 606 65 145 0 214 -34 255 -126 20 -44 65 -209
99 -359 12 -49 31 -126 44 -170 33 -112 35 -124 45 -277 11 -162 28 -212 87
-248 29 -19 52 -24 104 -24 58 -1 71 3 104 28 52 39 64 75 77 223 13 163 27
225 89 392 87 237 102 257 234 326 133 69 271 261 312 435 10 41 41 134 70
206 69 171 72 185 89 376 22 232 48 300 170 430 73 77 100 116 150 217 24 49
65 118 89 153 61 87 64 98 75 250 11 144 24 192 78 273 40 62 74 85 192 131
141 55 209 117 246 223 33 97 8 175 -65 205 -60 24 -205 21 -299 -5 -141 -40
-231 -19 -396 90 -43 28 -94 55 -114 61 -37 10 -114 12 -141 4z"/>
</g>
</svg>
