<!DOCTYPE svg PUBLIC "-//W3C//DTD SVG 20010904//EN" "http://www.w3.org/TR/2001/REC-SVG-20010904/DTD/svg10.dtd">
<svg xmlns="http://www.w3.org/2000/svg" version="1.0" width="700.000000pt" height="467.000000pt" viewBox="0 0 700.000000 467.000000" preserveAspectRatio="xMidYMid meet">
<metadata>
Created by potrace 1.15, written by Peter Selinger 2001-2017
</metadata>
<g transform="translate(0.000000,467.000000) scale(0.100000,-0.100000)" fill="#000000" stroke="none">
<polygon points="5730.0,4384.0 5716.04,4379.15 5701.49,4373.52 5686.22,4367.05 5670.12,4359.69 5653.07,4351.38 5634.94,4342.08 5615.6,4331.72 5594.95,4320.26 5572.86,4307.64 5549.2,4293.82 5524.65,4279.23 5501.42,4265.79 5478.54,4253.07 5456.73,4241.47 5436.67,4231.39 5419.09,4223.22 5404.69,4217.36 5394.16,4214.21 5380.88,4212.46 5361.96,4211.98 5339.69,4212.86 5315.91,4215.06 5292.5,4218.54 5264.22,4222.95 5237.15,4226.26 5212.04,4228.32 5188.77,4229.07 5167.23,4228.45 5147.3,4226.43 5128.87,4222.93 5111.83,4217.91 5096.05,4211.32 5081.44,4203.1 5067.87,4193.19 5055.23,4181.55 5043.41,4168.12 5032.29,4152.85 5021.75,4135.68 5011.7,4116.56 5002.0,4095.44 4992.68,4072.91 4983.85,4052.56 4975.09,4034.59 4966.1,4018.82 4956.59,4005.08 4946.23,3993.19 4934.73,3982.99 4921.79,3974.29 4907.09,3966.93 4890.34,3960.74 4871.22,3955.54 4849.44,3951.15 4824.68,3947.41 4796.64,3944.14 4765.02,3941.17 4734.67,3938.63 4708.8,3936.34 4684.91,3934.04 4662.71,3931.66 4641.93,3929.18 4622.29,3926.53 4603.52,3923.67 4585.33,3920.55 4567.45,3917.13 4549.6,3913.35 4531.51,3909.17 4512.9,3904.53 4493.49,3899.4 4473.01,3893.72 4456.43,3888.94 4447.5,3886.42 4438.58,3884.08 4429.47,3881.92 4420.01,3879.93 4410.03,3878.09 4399.34,3876.38 4387.77,3874.81 4375.15,3873.34 4361.3,3871.98 4346.04,3870.71 4329.19,3869.51 4310.59,3868.37 4290.06,3867.29 4267.42,3866.25 4242.49,3865.22 4215.1,3864.22 4185.07,3863.21 4152.23,3862.19 4116.41,3861.14 4077.42,3860.06 4035.09,3858.92 3991.62,3857.77 3955.71,3856.8 3921.24,3855.93 3888.16,3855.16 3856.43,3854.49 3826.0,3853.93 3796.82,3853.47 3768.83,3853.13 3741.99,3852.9 3716.26,3852.78 3691.57,3852.78 3667.89,3852.89 3645.16,3853.13 3623.33,3853.5 3602.36,3853.99 3582.19,3854.61 3562.79,3855.37 3544.08,3856.25 3526.04,3857.28 3508.61,3858.44 3491.74,3859.74 3475.38,3861.19 3459.48,3862.79 3443.99,3864.53 3428.87,3866.42 3414.07,3868.47 3399.53,3870.68 3385.2,3873.04 3371.05,3875.56 3357.01,3878.25 3343.05,3881.11 3329.1,3884.13 3315.13,3887.32 3301.08,3890.69 3286.9,3894.23 3275.55,3897.12 3266.51,3899.26 3256.9,3901.34 3246.71,3903.38 3235.95,3905.36 3224.62,3907.3 3212.71,3909.19 3200.23,3911.02 3187.17,3912.81 3173.53,3914.55 3159.31,3916.24 3144.52,3917.88 3129.15,3919.48 3113.2,3921.02 3096.68,3922.52 3079.57,3923.97 3061.89,3925.36 3043.62,3926.71 3024.77,3928.02 3005.34,3929.27 2985.33,3930.48 2964.74,3931.64 2943.57,3932.75 2921.81,3933.81 2899.47,3934.82 2876.54,3935.79 2853.03,3936.71 2828.94,3937.58 2804.26,3938.4 2778.99,3939.18 2753.14,3939.91 2726.7,3940.59 2699.67,3941.22 2672.06,3941.81 2643.86,3942.35 2615.07,3942.85 2585.69,3943.29 2555.72,3943.69 2525.16,3944.04 2494.01,3944.35 2462.27,3944.61 2429.93,3944.82 2397.01,3944.99 2360.33,3945.19 2325.33,3945.48 2292.27,3945.83 2261.16,3946.26 2231.99,3946.75 2204.76,3947.32 2179.47,3947.94 2156.11,3948.63 2134.69,3949.38 2115.2,3950.19 2097.64,3951.06 2082.01,3951.98 2068.3,3952.95 2056.52,3953.96 2046.65,3955.03 2038.71,3956.14 2032.68,3957.3 2024.9,3959.54 2008.87,3962.88 1988.78,3965.57 1965.7,3967.61 1940.72,3968.97 1914.91,3969.64 1889.36,3969.6 1865.14,3968.85 1843.33,3967.36 1825.02,3965.13 1811.27,3962.13 1799.47,3957.92 1781.53,3951.9 1759.53,3944.7 1736.12,3937.03 1715.42,3930.16 1696.28,3923.14 1677.89,3915.59 1660.13,3907.42 1642.89,3898.57 1626.08,3888.97 1609.6,3878.56 1593.32,3867.27 1577.16,3855.02 1561.01,3841.75 1544.76,3827.4 1528.31,3811.89 1511.55,3795.16 1495.0,3777.8 1480.77,3762.0 1466.85,3745.59 1453.28,3728.65 1440.1,3711.23 1427.35,3693.42 1415.07,3675.28 1403.3,3656.89 1392.08,3638.31 1381.45,3619.61 1371.46,3600.87 1362.13,3582.15 1353.52,3563.53 1345.67,3545.07 1338.6,3526.85 1332.37,3508.93 1327.02,3491.39 1324.32,3481.2 1323.14,3475.71 1321.98,3469.46 1320.83,3462.46 1319.7,3454.74 1318.59,3446.28 1317.5,3437.11 1316.42,3427.24 1315.36,3416.67 1314.32,3405.42 1313.3,3393.5 1312.3,3380.91 1311.32,3367.66 1310.35,3353.78 1309.41,3339.26 1308.49,3324.11 1307.59,3308.35 1306.71,3291.99 1305.85,3275.03 1305.01,3257.49 1304.2,3239.38 1303.4,3220.7 1302.63,3201.47 1301.89,3181.7 1301.16,3161.4 1300.46,3140.57 1299.79,3119.22 1299.14,3097.38 1298.51,3075.04 1297.91,3052.22 1297.33,3028.93 1296.78,3005.17 1296.25,2980.96 1295.76,2956.31 1295.28,2931.23 1294.84,2905.72 1294.42,2879.8 1294.03,2853.48 1293.67,2826.77 1293.33,2799.67 1293.02,2772.21 1292.75,2744.38 1292.5,2716.2 1292.28,2687.68 1292.09,2658.82 1291.93,2629.65 1291.8,2600.16 1291.7,2570.37 1291.64,2540.29 1291.6,2509.93 1291.6,2479.29 1291.63,2448.4 1291.69,2417.26 1291.78,2385.87 1291.91,2354.25 1292.05,2326.78 1292.17,2305.93 1292.29,2285.08 1292.42,2264.24 1292.54,2243.39 1292.66,2222.54 1292.78,2201.7 1292.91,2180.85 1293.03,2160.0 1293.15,2139.16 1293.27,2118.31 1293.4,2097.46 1293.52,2076.62 1293.64,2055.77 1293.77,2034.92 1293.89,2014.08 1294.01,1993.23 1294.13,1972.38 1294.26,1951.54 1294.38,1930.69 1294.5,1909.84 1294.62,1889.0 1294.75,1868.15 1294.87,1847.3 1294.99,1826.46 1289.14,1806.51 1282.85,1786.64 1276.55,1766.77 1270.25,1746.89 1263.96,1727.02 1258.67,1710.41 1253.86,1694.97 1249.38,1680.04 1245.21,1665.51 1241.34,1651.26 1237.75,1637.17 1234.45,1623.12 1231.41,1609.0 1228.63,1594.68 1226.09,1580.05 1223.79,1565.0 1221.71,1549.4 1219.85,1533.14 1218.19,1516.09 1216.71,1498.14 1215.42,1479.18 1214.3,1459.08 1213.34,1437.72 1212.52,1414.99 1211.84,1390.78 1211.29,1364.95 1210.85,1337.4 1210.51,1308.01 1210.27,1276.65 1210.11,1243.22 1210.03,1207.58 1210.0,1169.74 1209.81,1142.01 1209.58,1114.36 1209.29,1086.91 1208.95,1059.79 1208.57,1033.12 1208.14,1007.03 1207.67,981.66 1207.15,957.11 1206.58,933.52 1205.98,911.02 1205.33,889.73 1204.64,869.78 1203.9,851.3 1203.13,834.4 1202.32,819.22 1201.48,805.89 1200.59,794.52 1199.67,785.25 1197.33,766.98 1192.14,726.22 1187.85,691.59 1184.41,662.38 1181.81,637.88 1180.01,617.38 1178.98,600.18 1178.69,585.57 1179.12,572.84 1180.23,561.29 1181.99,550.2 1184.37,538.87 1187.69,525.34 1195.14,501.83 1204.48,480.02 1215.55,459.98 1228.19,441.79 1242.21,425.53 1257.46,411.26 1273.76,399.06 1290.96,389.0 1308.87,381.16 1327.33,375.61 1346.17,372.42 1365.23,371.66 1384.33,373.42 1403.32,377.77 1422.01,384.77 1440.24,394.5 1456.09,405.6 1464.92,412.84 1472.82,420.38 1479.84,428.5 1486.05,437.47 1491.49,447.59 1496.21,459.12 1500.28,472.36 1503.73,487.57 1506.63,505.03 1509.03,525.04 1510.98,547.86 1512.53,573.78 1513.73,603.07 1514.65,636.03 1515.33,672.91 1515.82,714.02 1516.13,757.23 1516.44,795.51 1516.87,829.06 1517.44,858.32 1518.19,883.74 1519.15,905.77 1520.34,924.83 1521.81,941.38 1523.57,955.85 1525.66,968.69 1528.11,980.35 1530.95,991.26 1534.22,1001.87 1538.34,1013.63 1544.71,1030.12 1552.19,1048.63 1560.65,1068.84 1569.94,1090.47 1579.92,1113.2 1590.45,1136.75 1601.38,1160.81 1612.57,1185.09 1623.88,1209.27 1635.17,1233.08 1646.28,1256.19 1657.09,1278.32 1667.44,1299.17 1677.19,1318.44 1686.2,1335.82 1694.32,1351.02 1701.42,1363.74 1707.35,1373.67 1711.96,1380.53 1716.52,1385.79 1723.88,1395.15 1732.77,1407.78 1742.91,1423.19 1754.0,1440.89 1765.77,1460.39 1777.92,1481.2 1790.17,1502.84 1802.22,1524.82 1813.8,1546.63 1824.62,1567.81 1834.37,1587.85 1845.09,1611.42 1858.22,1639.9 1869.83,1663.17 1880.52,1682.03 1890.86,1697.27 1901.45,1709.7 1912.87,1720.11 1925.71,1729.3 1940.55,1738.06 1963.94,1750.44 1982.04,1757.42 1996.49,1756.15 2014.88,1746.94 2028.87,1738.76 2039.02,1732.03 2048.03,1724.93 2055.96,1717.14 2062.89,1708.37 2068.89,1698.3 2074.04,1686.63 2078.41,1673.05 2082.08,1657.25 2085.12,1638.94 2087.61,1617.79 2089.63,1593.51 2091.24,1565.78 2092.52,1534.31 2093.54,1498.77 2094.39,1458.88 2095.05,1416.86 2095.4,1384.86 2095.93,1354.46 2096.61,1325.75 2097.45,1298.84 2098.44,1273.81 2099.56,1250.78 2100.81,1229.83 2102.18,1211.06 2103.67,1194.57 2105.25,1180.47 2106.94,1168.84 2108.7,1159.79 2110.7,1152.78 2113.72,1143.99 2117.69,1133.39 2122.56,1121.1 2128.26,1107.22 2134.76,1091.87 2141.99,1075.15 2149.9,1057.17 2158.45,1038.03 2167.57,1017.85 2177.21,996.74 2187.33,974.8 2197.87,952.15 2208.77,928.88 2219.99,905.12 2231.47,880.96 2243.16,856.52 2255.0,831.91 2266.94,807.23 2278.94,782.59 2290.93,758.1 2302.87,733.88 2314.69,710.02 2326.36,686.64 2337.81,663.85 2349.0,641.75 2359.86,620.45 2370.35,600.07 2380.42,580.7 2390.01,562.46 2399.07,545.47 2407.54,529.81 2415.38,515.61 2422.53,502.98 2428.94,492.01 2434.55,482.83 2439.97,474.61 2453.77,456.26 2468.43,439.2 2483.87,423.49 2500.04,409.16 2516.86,396.27 2534.26,384.86 2552.18,374.97 2570.54,366.66 2589.28,359.98 2608.33,354.96 2627.62,351.65 2647.08,350.11 2669.62,350.58 2692.4,353.69 2713.34,359.42 2732.28,367.67 2749.07,378.32 2763.56,391.28 2775.6,406.45 2785.02,423.71 2792.67,443.1 2795.83,459.54 2794.33,476.95 2788.23,499.76 2780.49,522.87 2772.95,542.56 2764.4,563.24 2755.39,583.44 2746.47,601.68 2735.22,622.41 2721.76,647.42 2709.39,670.95 2698.07,693.15 2687.74,714.17 2678.34,734.16 2669.83,753.28 2662.14,771.69 2655.23,789.53 2649.05,806.95 2643.52,824.11 2638.62,841.17 2634.27,858.26 2630.42,875.56 2627.03,893.2 2624.04,911.35 2621.39,930.15 2619.03,949.75 2617.3,966.36 2615.9,984.19 2614.82,1003.16 2614.06,1023.18 2613.6,1044.11 2613.43,1065.86 2613.56,1088.3 2613.96,1111.32 2614.63,1134.82 2615.56,1158.67 2616.74,1182.76 2618.17,1206.97 2619.84,1231.2 2621.73,1255.33 2623.84,1279.25 2626.15,1302.84 2628.67,1325.99 2631.39,1348.58 2634.28,1370.51 2637.36,1391.65 2640.6,1411.9 2644.0,1431.13 2647.54,1449.24 2651.23,1466.12 2655.06,1481.64 2659.0,1495.7 2663.12,1508.33 2670.94,1529.14 2679.33,1548.25 2688.33,1565.67 2698.01,1581.43 2708.4,1595.52 2719.57,1607.97 2731.56,1618.79 2744.42,1627.98 2758.2,1635.56 2772.96,1641.54 2788.75,1645.94 2805.62,1648.76 2823.61,1650.02 2842.78,1649.72 2863.19,1647.89 2884.88,1644.54 2907.9,1639.67 2932.3,1633.29 2958.14,1625.43 2985.47,1616.09 3014.33,1605.28 3043.14,1593.71 3064.16,1585.05 3085.88,1576.15 3107.84,1567.19 3129.57,1558.38 3150.6,1549.92 3170.45,1542.02 3188.66,1534.86 3204.75,1528.67 3218.27,1523.63 3235.09,1517.49 3253.53,1511.7 3272.72,1506.63 3292.55,1502.29 3312.93,1498.68 3333.75,1495.8 3354.92,1493.67 3376.35,1492.28 3397.93,1491.64 3419.56,1491.77 3441.16,1492.65 3462.61,1494.31 3483.83,1496.73 3504.72,1499.94 3525.17,1503.93 3543.2,1507.79 3561.14,1511.41 3579.69,1514.98 3598.79,1518.48 3618.41,1521.91 3638.51,1525.27 3659.03,1528.55 3679.93,1531.74 3701.16,1534.85 3722.69,1537.85 3744.46,1540.76 3766.42,1543.57 3788.55,1546.26 3810.78,1548.84 3833.08,1551.29 3855.4,1553.62 3877.69,1555.82 3899.91,1557.88 3922.01,1559.79 3943.95,1561.56 3965.68,1563.18 3987.17,1564.64 4008.35,1565.93 4029.19,1567.06 4049.65,1568.01 4069.67,1568.78 4089.21,1569.37 4108.23,1569.77 4126.69,1569.97 4150.1,1569.89 4177.79,1568.93 4203.49,1566.95 4227.29,1563.89 4249.27,1559.73 4269.54,1554.41 4288.18,1547.88 4305.28,1540.1 4320.95,1531.02 4335.26,1520.6 4348.31,1508.78 4360.2,1495.53 4371.01,1480.8 4380.84,1464.55 4389.77,1446.71 4394.04,1436.87 4397.99,1426.54 4402.35,1414.21 4407.07,1400.02 4412.11,1384.1 4417.43,1366.6 4423.01,1347.67 4428.79,1327.45 4434.75,1306.08 4440.84,1283.7 4447.03,1260.45 4453.27,1236.49 4459.54,1211.95 4465.79,1186.97 4471.99,1161.69 4478.09,1136.27 4484.07,1110.84 4489.88,1085.55 4494.44,1066.89 4499.44,1046.64 4504.78,1025.23 4510.32,1003.27 4515.93,981.38 4521.48,960.18 4526.84,940.26 4531.89,922.25 4537.91,901.7 4544.22,879.95 4549.66,860.57 4554.32,842.98 4558.3,826.59 4561.69,810.82 4564.59,795.08 4567.1,778.79 4569.3,761.35 4571.29,742.18 4573.18,720.7 4575.04,696.31 4576.98,668.44 4579.11,636.37 4581.75,601.49 4584.7,570.22 4588.05,542.3 4591.89,517.49 4596.33,495.51 4601.46,476.11 4607.36,459.04 4614.15,444.03 4621.9,430.83 4630.73,419.17 4640.71,408.8 4651.95,399.47 4664.54,390.9 4680.52,381.44 4696.87,374.42 4714.7,369.77 4735.5,367.11 4760.75,366.06 4790.19,365.9 4813.56,367.06 4831.74,370.35 4847.32,376.42 4862.9,385.9 4878.72,397.62 4890.58,407.66 4900.9,418.15 4909.84,429.53 4917.54,442.21 4924.17,456.62 4929.86,473.2 4934.79,492.37 4939.09,514.56 4942.92,540.19 4946.44,569.7 4949.79,603.51 4952.28,632.72 4954.34,656.24 4956.48,678.43 4958.73,699.45 4961.15,719.48 4963.76,738.68 4966.6,757.22 4969.72,775.28 4973.14,793.02 4976.92,810.61 4981.09,828.22 4985.69,846.03 4990.76,864.21 4996.33,882.91 5002.44,902.32 5009.14,922.6 5016.47,943.93 5024.45,966.47 5033.13,990.39 5043.4,1018.25 5055.68,1051.41 5067.06,1081.55 5077.68,1108.89 5087.68,1133.62 5097.2,1155.94 5106.39,1176.06 5115.39,1194.17 5124.34,1210.47 5133.38,1225.17 5142.66,1238.46 5152.31,1250.54 5162.48,1261.61 5173.31,1271.87 5184.94,1281.53 5197.52,1290.78 5211.18,1299.81 5226.07,1308.85 5242.33,1318.07 5260.11,1327.68 5278.18,1337.21 5293.36,1345.88 5308.53,1355.56 5323.68,1366.19 5338.75,1377.74 5353.73,1390.16 5368.57,1403.39 5383.24,1417.4 5397.72,1432.13 5411.96,1447.55 5425.93,1463.6 5439.6,1480.24 5452.94,1497.42 5465.91,1515.09 5478.47,1533.22 5490.61,1551.75 5502.27,1570.63 5513.43,1589.83 5524.05,1609.28 5534.11,1628.96 5543.56,1648.81 5552.38,1668.78 5560.52,1688.83 5567.97,1708.91 5574.67,1728.98 5580.61,1748.99 5585.74,1768.89 5589.21,1782.34 5593.62,1797.83 5598.95,1815.44 5605.08,1834.78 5611.89,1855.46 5619.25,1877.1 5627.05,1899.31 5635.16,1921.72 5643.46,1943.93 5651.84,1965.56 5661.42,1989.46 5671.42,2014.41 5680.39,2037.12 5688.4,2057.9 5695.54,2077.05 5701.87,2094.88 5707.48,2111.71 5712.42,2127.83 5716.78,2143.56 5720.63,2159.21 5724.05,2175.09 5727.1,2191.5 5729.87,2208.75 5732.43,2227.16 5734.84,2247.02 5737.19,2268.66 5739.54,2292.37 5741.98,2318.46 5744.58,2347.25 5747.47,2377.13 5750.47,2405.24 5753.61,2431.66 5756.92,2456.52 5760.46,2479.92 5764.27,2501.98 5768.41,2522.82 5772.9,2542.54 5777.81,2561.27 5783.18,2579.11 5789.06,2596.19 5795.48,2612.62 5802.51,2628.51 5810.18,2643.98 5818.55,2659.13 5827.65,2674.1 5837.54,2688.99 5848.26,2703.91 5859.87,2718.98 5872.39,2734.32 5885.89,2750.03 5900.41,2766.24 5916.07,2783.13 5932.36,2800.55 5947.17,2816.88 5960.68,2832.4 5973.11,2847.4 5984.65,2862.18 5995.49,2877.02 6005.86,2892.22 6015.93,2908.07 6025.93,2924.86 6036.04,2942.89 6046.46,2962.44 6057.41,2983.8 6067.98,3005.01 6077.51,3023.5 6088.01,3042.94 6099.14,3062.81 6110.57,3082.58 6121.98,3101.72 6133.02,3119.7 6143.36,3135.99 6152.68,3150.06 6165.36,3168.32 6176.98,3185.57 6186.83,3201.17 6195.09,3215.76 6201.95,3229.96 6207.59,3244.38 6212.22,3259.65 6216.02,3276.4 6219.17,3295.23 6221.87,3316.79 6224.31,3341.69 6226.67,3370.54 6229.13,3403.73 6231.57,3433.36 6234.17,3460.29 6237.01,3484.81 6240.18,3507.2 6243.78,3527.77 6247.88,3546.81 6252.59,3564.61 6257.98,3581.46 6264.15,3597.66 6271.19,3613.5 6279.18,3629.27 6288.21,3645.26 6298.37,3661.77 6309.43,3678.73 6319.87,3693.82 6330.49,3707.41 6341.64,3719.76 6353.7,3731.12 6367.02,3741.74 6381.98,3751.88 6398.94,3761.78 6418.26,3771.7 6440.31,3781.88 6465.45,3792.59 6494.05,3804.07 6519.92,3814.44 6543.42,3824.67 6565.42,3835.15 6585.97,3845.93 6605.14,3857.04 6622.97,3868.55 6639.52,3880.5 6654.85,3892.94 6669.02,3905.92 6682.07,3919.48 6694.07,3933.69 6705.08,3948.58 6715.14,3964.21 6724.31,3980.62 6732.65,3997.87 6740.22,4016.0 6747.56,4036.87 6754.05,4061.46 6757.96,4085.04 6759.32,4107.48 6758.17,4128.68 6754.56,4148.52 6748.52,4166.89 6740.09,4183.67 6729.31,4198.74 6716.23,4212.0 6700.87,4223.33 6683.29,4232.6 6668.96,4237.84 6653.58,4241.79 6636.28,4244.98 6617.31,4247.43 6596.93,4249.13 6575.43,4250.11 6553.05,4250.36 6530.08,4249.9 6506.78,4248.73 6483.41,4246.85 6460.24,4244.29 6437.54,4241.04 6415.58,4237.12 6394.62,4232.52 6374.45,4227.18 6354.18,4221.99 6334.52,4217.73 6315.41,4214.39 6296.73,4212.01 6278.41,4210.61 6260.35,4210.19 6242.46,4210.79 6224.65,4212.42 6206.83,4215.1 6188.92,4218.84 6170.81,4223.68 6152.42,4229.63 6133.66,4236.7 6114.44,4244.93 6094.66,4254.31 6074.25,4264.89 6053.1,4276.67 6031.12,4289.68 6008.23,4303.93 5984.43,4319.37 5963.2,4332.71 5941.72,4345.39 5920.97,4356.9 5901.93,4366.73 5885.58,4374.4 5872.89,4379.4 5856.2,4383.24 5834.66,4386.25 5811.05,4388.15 5787.07,4388.92 5764.43,4388.51 5744.84,4386.88 5730.0,4384.0"/></g>
</svg>
